<?xml version="1.0" encoding="UTF-8"?>
<svg xmlns="http://www.w3.org/2000/svg" version="1.1" viewBox="0 0 1864 426">
  <defs>
    <style>
      .cls-1 {
        fill: #2b3b97;
      }

      .cls-2 {
        fill: #a91e22;
      }

      .cls-3 {
        fill: #e77024;
      }

      .cls-4 {
        fill: #279546;
      }

      .cls-5 {
        fill: #9f4e23;
      }
    </style>
  </defs>
  <!-- Generator: Adobe Illustrator 28.7.1, SVG Export Plug-In . SVG Version: 1.2.0 Build 142)  -->
  <g>
    <g id="Layer_1">
      <g>
        <path class="cls-3" d="M1699,103.9c0,73.4.3,104,1.1,104.3.6.2,7,11.1,14.2,24.3,7.3,13.1,13.7,24,14.2,24.1,1.4.4,28.1-48.9,26.7-49.4-.9-.3-1.2-26.3-1.2-103.8V0h-55v103.9Z"/>
        <path class="cls-5" d="M1773,127v82h55V45h-55v82Z"/>
        <path class="cls-4" d="M1625,144v66h55V78h-55v66Z"/>
        <path d="M23.2,281.2C10.9,357.3.6,420.3.4,421.2c-.5,1.7,2.3,1.8,49.3,1.8h49.9l6.2-62.8c3.5-34.5,6.7-68.8,7.3-76.2s1.2-13.6,1.4-13.8c1.1-1.1,2.5,1.4,2.5,4.5,0,8.6,6.2,31.8,23.3,87.8l18.5,60,30.4.3,30.4.2,21.3-66c11.7-36.3,22.2-70.5,23.3-76,1.2-5.5,2.4-10,2.7-10s3.5,32.1,7,71.2c3.5,39.2,6.5,73.4,6.8,76l.6,4.8h49.3c38.8,0,49.4-.3,49.4-1.3.1-.6-10.2-63.6-22.7-140l-22.8-138.7-52.4.2-52.5.3-16.7,58.5c-12,42-17.4,62.5-19.1,72.8-1.3,7.8-2.8,14.4-3.2,14.5-.5.1-9.5-32.7-20-72.8l-19.2-73-53-.3-53-.2-22.2,138.2Z"/>
        <path d="M590.2,281.2c-12.3,76.1-22.6,139.1-22.8,140-.5,1.7,2.3,1.8,49.3,1.8h49.9l6.2-62.8c3.5-34.5,6.7-68.8,7.3-76.2s1.2-13.6,1.4-13.8c1.1-1.1,2.5,1.4,2.5,4.5,0,8.6,6.2,31.8,23.3,87.8l18.5,60,30.4.3,30.4.2,21.3-66c11.7-36.3,22.2-70.5,23.3-76,1.2-5.5,2.4-10,2.7-10s3.5,32.1,7,71.2c3.5,39.2,6.5,73.4,6.8,76l.6,4.8h49.3c38.8,0,49.4-.3,49.4-1.3.1-.6-10.2-63.6-22.7-140l-22.8-138.7-52.4.2-52.5.3-16.7,58.5c-12,42-17.4,62.5-19.1,72.8-1.3,7.8-2.8,14.4-3.2,14.5-.5.1-9.5-32.7-20-72.8l-19.2-73-53-.3-53-.2-22.2,138.2Z"/>
        <path class="cls-1" d="M1548,283v140h55V143h-55v140Z"/>
        <path class="cls-2" d="M1486,314v110h55v-220h-55v110Z"/>
        <path d="M391.2,259.7c11.1,18.1,26.6,43.4,34.5,56.2l14.3,23.5v84.6h70v-84.2l33.5-55.8c18.4-30.7,33.5-56.1,33.5-56.4s-18.2-.6-40.4-.6h-40.4l-8,18.7c-4.3,10.4-8.9,21.9-10.2,25.6-1.2,3.8-2.5,6.5-2.9,6.2-.3-.4-5.3-11.7-11.1-25.3l-10.5-24.7-41.2-.3-41.2-.2,20.1,32.7Z"/>
        <path d="M976,325v98h134v-54h-62v-19h55v-51h-55v-18h60v-54h-132v98Z"/>
        <path d="M1121,259.1v32.1l17.3-.7c9.4-.3,18.2-.8,19.5-1.1l2.2-.4v135h72v-135.1l4.3.5c2.3.3,11.3.8,20,1.2l15.7.6v-64.2h-151v32.1Z"/>
        <path d="M1285,325.5v98.5h70v-31.8c.1,0,.1-31.7.1-31.7l16,31.8,15.9,31.7h41.6c32.9,0,41.5-.3,41.1-1.3-.3-.6-10.7-16.3-23.1-34.8-16.1-24.2-23.8-34.7-27.1-37.4l-4.6-3.8,6.9-2.7c22.7-8.8,31.2-22.4,31.2-49.4-.1-19.5-5-33.3-16.3-45.2-7.6-8.1-14.8-12.7-25.9-16.6-15.3-5.4-20.4-5.8-75.4-5.8h-50.4v98.5ZM1374.8,283.4c5.9,3,8.6,10.2,7,18.3-1.6,7.5-8.4,11.3-20.5,11.3h-6.3v-32.3l8.3.5c4.8.3,9.7,1.3,11.5,2.2Z"/>
        <path d="M1627,227.6c0,.3,13.7,20.9,30.4,45.9l30.4,45.3-33.6,50.8c-18.4,28-33.7,51.7-34,52.6-.4,1.7,2,1.8,40.4,1.8h40.9c0-.1,11.7-21.8,11.7-21.8,10.5-19.5,12.6-23.6,15.3-30.7.6-1.7,1-1.2,2.4,2.7.9,2.6,7,14.9,13.6,27.2l12,22.5h40.8c28.4.1,40.7-.2,40.7-1s-15.6-24.3-34.6-52.7l-34.5-51.6,29.9-44.5c16.4-24.5,30.2-45.2,30.6-45.9.6-.9-7.7-1.2-40.2-1.2h-40.9l-8.5,17.7c-4.7,9.8-9.1,19.5-9.7,21.5-.7,2.1-1.4,3.8-1.6,3.8s-1.1-2.4-1.9-5.3c-.9-2.8-5.3-12.4-9.9-21.2l-8.3-16-40.7-.3c-22.4-.1-40.7,0-40.7.4Z"/>
        <path class="cls-4" d="M1626,319.5c0,65.6.2,76.7,1.4,75.5,4.8-5.1,54-73.9,54-75.5s-49.1-70.2-54-75.5c-1.2-1.2-1.4,10.2-1.4,75.5Z"/>
        <path d="M1791,316.5v15.5h11v-31h-11v15.5Z"/>
        <path d="M1806,316.5v15.5h11v-14.5c.1,0,4.2,7.2,4.2,7.2l4.2,7.3h11.6v-31h-10.9l-.3,7.2-.3,7.1-3.9-7.1-3.9-7.2h-11.7v15.5Z"/>
        <path d="M1847.2,303c-5.4,3.3-7.4,7.5-7,14.8.4,5.7.7,6.6,4.1,9.9,3.4,3.5,4.1,3.8,10.8,4.1,8.4.5,8.9.1,8.9-7.6v-5.3l-3,1.6c-4,2.1-5.5,1.9-7.8-1-3.9-4.9.9-10.3,6.6-7.4,1.5.7,3,1.5,3.5,1.7,1.2.6.8-10.3-.5-11.6-2-2-11.8-1.5-15.6.8Z"/>
        <path class="cls-3" d="M1727.3,383.3c-1.5,1.8-21.3,38.2-21.3,39s10.1.7,22.5.7,22.5-.3,22.5-.7c0-1-21.1-39.3-22-39.8-.4-.3-1.2.1-1.7.8Z"/>
      </g>
    </g>
  </g>
</svg>